<mxfile host="65bd71144e">
    <diagram id="pUzfgVnz7XkT4wG61MmF" name="Page-1">
        <mxGraphModel dx="2284" dy="2365" grid="1" gridSize="10" guides="1" tooltips="1" connect="1" arrows="1" fold="1" page="0" pageScale="1" pageWidth="850" pageHeight="1100" math="0" shadow="0">
            <root>
                <mxCell id="0"/>
                <mxCell id="1" parent="0"/>
                <mxCell id="2" value="server.js" style="ellipse;whiteSpace=wrap;html=1;" vertex="1" parent="1">
                    <mxGeometry x="-410" y="490" width="120" height="100" as="geometry"/>
                </mxCell>
                <mxCell id="27" style="edgeStyle=none;html=1;entryX=0;entryY=0.5;entryDx=0;entryDy=0;fontSize=16;fontColor=#FFFFFF;" edge="1" parent="1" source="4" target="6">
                    <mxGeometry relative="1" as="geometry"/>
                </mxCell>
                <mxCell id="28" style="edgeStyle=none;html=1;entryX=0;entryY=0.5;entryDx=0;entryDy=0;fontSize=16;fontColor=#FFFFFF;" edge="1" parent="1" source="4" target="9">
                    <mxGeometry relative="1" as="geometry"/>
                </mxCell>
                <mxCell id="29" style="edgeStyle=none;html=1;entryX=0;entryY=0.5;entryDx=0;entryDy=0;fontSize=16;fontColor=#FFFFFF;" edge="1" parent="1" source="4" target="10">
                    <mxGeometry relative="1" as="geometry"/>
                </mxCell>
                <mxCell id="4" value="&lt;font style=&quot;font-size: 16px;&quot; color=&quot;#000000&quot;&gt;Config&lt;/font&gt;" style="rounded=0;whiteSpace=wrap;html=1;fillColor=#dae8fc;strokeColor=#6c8ebf;" vertex="1" parent="1">
                    <mxGeometry x="-210" y="110" width="120" height="60" as="geometry"/>
                </mxCell>
                <mxCell id="6" value="db.js" style="shape=hexagon;perimeter=hexagonPerimeter2;whiteSpace=wrap;html=1;fixedSize=1;fontSize=16;fontColor=#ffffff;fillColor=#1ba1e2;strokeColor=#006EAF;" vertex="1" parent="1">
                    <mxGeometry x="-30" y="10" width="120" height="80" as="geometry"/>
                </mxCell>
                <mxCell id="9" value="default.json" style="shape=hexagon;perimeter=hexagonPerimeter2;whiteSpace=wrap;html=1;fixedSize=1;fontSize=16;fontColor=#ffffff;fillColor=#008a00;strokeColor=#005700;" vertex="1" parent="1">
                    <mxGeometry x="-30" y="100" width="120" height="80" as="geometry"/>
                </mxCell>
                <mxCell id="10" value="default.json" style="shape=hexagon;perimeter=hexagonPerimeter2;whiteSpace=wrap;html=1;fixedSize=1;fontSize=16;fontColor=#ffffff;fillColor=#008a00;strokeColor=#005700;" vertex="1" parent="1">
                    <mxGeometry x="-30" y="190" width="120" height="80" as="geometry"/>
                </mxCell>
                <mxCell id="13" style="edgeStyle=none;html=1;entryX=0.5;entryY=0;entryDx=0;entryDy=0;fontSize=16;fontColor=#FFFFFF;" edge="1" parent="1" source="11" target="6">
                    <mxGeometry relative="1" as="geometry">
                        <Array as="points">
                            <mxPoint x="30" y="-260"/>
                        </Array>
                    </mxGeometry>
                </mxCell>
                <mxCell id="11" value="&lt;p&gt;&lt;font color=&quot;#ffffff&quot;&gt;The &lt;code&gt;db.js&lt;/code&gt; file typically plays a crucial role in setting up and managing the connection to the database in a Node.js application. Here's a breakdown of its likely functions and responsibilities:&lt;/font&gt;&lt;/p&gt;&lt;h3&gt;&lt;font color=&quot;#ffffff&quot;&gt;1. &lt;strong&gt;Database Configuration&lt;/strong&gt;&lt;/font&gt;&lt;/h3&gt;&lt;ul&gt;&lt;li&gt;&lt;font color=&quot;#ffffff&quot;&gt;The &lt;code&gt;db.js&lt;/code&gt; file will often import configuration settings for the database, such as the database URL, port, and authentication details. These configurations are usually stored in environment variables or configuration files (like &lt;code&gt;default.json&lt;/code&gt; or &lt;code&gt;.env&lt;/code&gt;).&lt;/font&gt;&lt;/li&gt;&lt;/ul&gt;&lt;h3&gt;&lt;font color=&quot;#ffffff&quot;&gt;2. &lt;strong&gt;Establishing Connection&lt;/strong&gt;&lt;/font&gt;&lt;/h3&gt;&lt;ul&gt;&lt;li&gt;&lt;font color=&quot;#ffffff&quot;&gt;It contains the logic to establish a connection to the database using a library like &lt;code&gt;mongoose&lt;/code&gt; for MongoDB or &lt;code&gt;sequelize&lt;/code&gt; for SQL databases. This involves creating a connection instance that the rest of the application can use to interact with the database.&lt;/font&gt;&lt;/li&gt;&lt;/ul&gt;&lt;h3&gt;&lt;font color=&quot;#ffffff&quot;&gt;3. &lt;strong&gt;Connection Management&lt;/strong&gt;&lt;/font&gt;&lt;/h3&gt;&lt;ul&gt;&lt;li&gt;&lt;font color=&quot;#ffffff&quot;&gt;The &lt;code&gt;db.js&lt;/code&gt; file manages the database connection lifecycle. This includes handling events like connection success, connection error, and disconnection. Proper error handling ensures that the application can respond appropriately to database connection issues.&lt;/font&gt;&lt;/li&gt;&lt;/ul&gt;&lt;h3&gt;&lt;font color=&quot;#ffffff&quot;&gt;4. &lt;strong&gt;Exporting the Connection&lt;/strong&gt;&lt;/font&gt;&lt;/h3&gt;&lt;ul&gt;&lt;li&gt;&lt;font color=&quot;#ffffff&quot;&gt;Once the connection is established, the &lt;code&gt;db.js&lt;/code&gt; file exports the connection instance so that it can be imported and used in other parts of the application, such as models and services.&lt;/font&gt;&lt;/li&gt;&lt;/ul&gt;" style="rounded=0;whiteSpace=wrap;html=1;fontSize=16;fontColor=#000000;align=left;perimeterSpacing=5;" vertex="1" parent="1">
                    <mxGeometry x="1100" y="-650" width="773" height="780" as="geometry"/>
                </mxCell>
                <mxCell id="21" style="edgeStyle=none;html=1;entryX=0;entryY=0.5;entryDx=0;entryDy=0;fontSize=16;fontColor=#FFFFFF;" edge="1" parent="1" source="14" target="20">
                    <mxGeometry relative="1" as="geometry"/>
                </mxCell>
                <mxCell id="22" style="edgeStyle=none;html=1;entryX=0;entryY=0.5;entryDx=0;entryDy=0;fontSize=16;fontColor=#FFFFFF;" edge="1" parent="1" source="14" target="17">
                    <mxGeometry relative="1" as="geometry"/>
                </mxCell>
                <mxCell id="23" style="edgeStyle=none;html=1;entryX=0;entryY=0.5;entryDx=0;entryDy=0;fontSize=16;fontColor=#FFFFFF;" edge="1" parent="1" source="14" target="18">
                    <mxGeometry relative="1" as="geometry"/>
                </mxCell>
                <mxCell id="24" style="edgeStyle=none;html=1;entryX=0;entryY=0.5;entryDx=0;entryDy=0;fontSize=16;fontColor=#FFFFFF;" edge="1" parent="1" source="14" target="15">
                    <mxGeometry relative="1" as="geometry"/>
                </mxCell>
                <mxCell id="25" style="edgeStyle=none;html=1;entryX=0;entryY=0.5;entryDx=0;entryDy=0;fontSize=16;fontColor=#FFFFFF;" edge="1" parent="1" source="14" target="16">
                    <mxGeometry relative="1" as="geometry"/>
                </mxCell>
                <mxCell id="26" style="edgeStyle=none;html=1;entryX=0;entryY=0.5;entryDx=0;entryDy=0;fontSize=16;fontColor=#FFFFFF;" edge="1" parent="1" source="14" target="19">
                    <mxGeometry relative="1" as="geometry"/>
                </mxCell>
                <mxCell id="14" value="&lt;font style=&quot;font-size: 16px;&quot; color=&quot;#000000&quot;&gt;Middleware&lt;/font&gt;" style="rounded=0;whiteSpace=wrap;html=1;fillColor=#dae8fc;strokeColor=#6c8ebf;" vertex="1" parent="1">
                    <mxGeometry x="-210" y="470" width="120" height="60" as="geometry"/>
                </mxCell>
                <mxCell id="15" value="logger.js" style="shape=hexagon;perimeter=hexagonPerimeter2;whiteSpace=wrap;html=1;fixedSize=1;fontSize=16;fontColor=#ffffff;fillColor=#1ba1e2;strokeColor=#006EAF;" vertex="1" parent="1">
                    <mxGeometry x="-30" y="740" width="120" height="80" as="geometry"/>
                </mxCell>
                <mxCell id="16" value="rateLimiter.js" style="shape=hexagon;perimeter=hexagonPerimeter2;whiteSpace=wrap;html=1;fixedSize=1;fontSize=16;fontColor=#ffffff;fillColor=#1ba1e2;strokeColor=#006EAF;" vertex="1" parent="1">
                    <mxGeometry x="-30" y="830" width="120" height="80" as="geometry"/>
                </mxCell>
                <mxCell id="17" value="auth.js" style="shape=hexagon;perimeter=hexagonPerimeter2;whiteSpace=wrap;html=1;fixedSize=1;fontSize=16;fontColor=#ffffff;fillColor=#1ba1e2;strokeColor=#006EAF;" vertex="1" parent="1">
                    <mxGeometry x="-30" y="560" width="120" height="80" as="geometry"/>
                </mxCell>
                <mxCell id="18" value="errorHandler.js" style="shape=hexagon;perimeter=hexagonPerimeter2;whiteSpace=wrap;html=1;fixedSize=1;fontSize=16;fontColor=#ffffff;fillColor=#1ba1e2;strokeColor=#006EAF;" vertex="1" parent="1">
                    <mxGeometry x="-30" y="650" width="120" height="80" as="geometry"/>
                </mxCell>
                <mxCell id="19" value="validate.js" style="shape=hexagon;perimeter=hexagonPerimeter2;whiteSpace=wrap;html=1;fixedSize=1;fontSize=16;fontColor=#ffffff;fillColor=#1ba1e2;strokeColor=#006EAF;" vertex="1" parent="1">
                    <mxGeometry x="-30" y="920" width="120" height="80" as="geometry"/>
                </mxCell>
                <mxCell id="20" value="adminAuth.js" style="shape=hexagon;perimeter=hexagonPerimeter2;whiteSpace=wrap;html=1;fixedSize=1;fontSize=16;fontColor=#ffffff;fillColor=#1ba1e2;strokeColor=#006EAF;" vertex="1" parent="1">
                    <mxGeometry x="-30" y="470" width="120" height="80" as="geometry"/>
                </mxCell>
                <mxCell id="30" value="&lt;h3&gt;&lt;font color=&quot;#ffffff&quot;&gt;1. &lt;strong&gt;Token Verification Middleware&lt;/strong&gt;&lt;/font&gt;&lt;/h3&gt;&lt;h4&gt;&lt;font color=&quot;#ffffff&quot;&gt;Purpose:&lt;/font&gt;&lt;/h4&gt;&lt;p&gt;&lt;font color=&quot;#ffffff&quot;&gt;This middleware function verifies the presence and validity of a JSON Web Token (JWT) in incoming requests to secure routes. It ensures that only authenticated users can access certain endpoints.&lt;/font&gt;&lt;/p&gt;&lt;p&gt;&lt;font color=&quot;#ffffff&quot;&gt;&lt;br&gt;&lt;/font&gt;&lt;/p&gt;&lt;h4&gt;&lt;font color=&quot;#ffffff&quot;&gt;Use Case:&lt;/font&gt;&lt;/h4&gt;&lt;ul&gt;&lt;li&gt;&lt;font color=&quot;#ffffff&quot;&gt;&lt;strong&gt;Authentication&lt;/strong&gt;: Ensures that requests to protected routes include a valid JWT token.&lt;/font&gt;&lt;/li&gt;&lt;li&gt;&lt;font color=&quot;#ffffff&quot;&gt;&lt;strong&gt;User Identification&lt;/strong&gt;: Decodes the token to retrieve user information, which is then attached to the &lt;code&gt;req.user&lt;/code&gt; object for further use in the request lifecycle.&lt;/font&gt;&lt;/li&gt;&lt;/ul&gt;&lt;h4&gt;&lt;font color=&quot;#ffffff&quot;&gt;Importance:&lt;/font&gt;&lt;/h4&gt;&lt;ul&gt;&lt;li&gt;&lt;font color=&quot;#ffffff&quot;&gt;&lt;strong&gt;Security&lt;/strong&gt;: Prevents unauthorized access by validating tokens.&lt;/font&gt;&lt;/li&gt;&lt;li&gt;&lt;font color=&quot;#ffffff&quot;&gt;&lt;strong&gt;User Context&lt;/strong&gt;: Provides user context to the request, enabling user-specific operations in subsequent middleware or route handlers.&lt;/font&gt;&lt;/li&gt;&lt;/ul&gt;&lt;h3&gt;&lt;font color=&quot;#ffffff&quot;&gt;2. &lt;strong&gt;Role-Based Access Control Middleware&lt;/strong&gt;&lt;/font&gt;&lt;/h3&gt;&lt;h4&gt;&lt;font color=&quot;#ffffff&quot;&gt;Purpose:&lt;/font&gt;&lt;/h4&gt;&lt;p&gt;&lt;font color=&quot;#ffffff&quot;&gt;This middleware function enforces role-based access control (RBAC), ensuring that only users with specific roles can access certain endpoints.&lt;/font&gt;&lt;/p&gt;&lt;h4&gt;&lt;font color=&quot;#ffffff&quot;&gt;Use Case:&lt;/font&gt;&lt;/h4&gt;&lt;ul&gt;&lt;li&gt;&lt;font color=&quot;#ffffff&quot;&gt;&lt;strong&gt;Authorization&lt;/strong&gt;: Checks if the authenticated user has the necessary role to perform specific actions or access certain routes.&lt;/font&gt;&lt;/li&gt;&lt;li&gt;&lt;font color=&quot;#ffffff&quot;&gt;&lt;strong&gt;Fine-Grained Access Control&lt;/strong&gt;: Allows different levels of access based on user roles (e.g., admin, manager, user).&lt;/font&gt;&lt;/li&gt;&lt;/ul&gt;&lt;h4&gt;&lt;font color=&quot;#ffffff&quot;&gt;Importance:&lt;/font&gt;&lt;/h4&gt;&lt;ul&gt;&lt;li&gt;&lt;font color=&quot;#ffffff&quot;&gt;&lt;strong&gt;Security&lt;/strong&gt;: Adds an additional layer of security by restricting access based on user roles.&lt;/font&gt;&lt;/li&gt;&lt;li&gt;&lt;font color=&quot;#ffffff&quot;&gt;&lt;strong&gt;Role Management&lt;/strong&gt;: Simplifies role management and ensures that users can only perform actions they are authorized to do.&lt;/font&gt;&lt;/li&gt;&lt;/ul&gt;&lt;h3&gt;&lt;font color=&quot;#ffffff&quot;&gt;Integration and Flow in the Application:&lt;/font&gt;&lt;/h3&gt;&lt;ol&gt;&lt;li&gt;&lt;p&gt;&lt;font color=&quot;#ffffff&quot;&gt;&lt;strong&gt;Initialization (server.js)&lt;/strong&gt;:&lt;/font&gt;&lt;/p&gt;&lt;ul&gt;&lt;li&gt;&lt;font color=&quot;#ffffff&quot;&gt;The &lt;code&gt;auth.js&lt;/code&gt; middleware is imported and applied to routes that require authentication and authorization.&lt;/font&gt;&lt;/li&gt;&lt;/ul&gt;&lt;/li&gt;&lt;li&gt;&lt;p&gt;&lt;font color=&quot;#ffffff&quot;&gt;&lt;strong&gt;Token Verification&lt;/strong&gt;:&lt;/font&gt;&lt;/p&gt;&lt;ul&gt;&lt;li&gt;&lt;font color=&quot;#ffffff&quot;&gt;For each incoming request to a protected route, the token verification middleware checks for the presence and validity of the JWT token. If the token is valid, the user information is decoded and attached to the &lt;code&gt;req.user&lt;/code&gt; object.&lt;/font&gt;&lt;/li&gt;&lt;/ul&gt;&lt;/li&gt;&lt;li&gt;&lt;p&gt;&lt;font color=&quot;#ffffff&quot;&gt;&lt;strong&gt;Role-Based Access Control&lt;/strong&gt;:&lt;/font&gt;&lt;/p&gt;&lt;ul&gt;&lt;li&gt;&lt;font color=&quot;#ffffff&quot;&gt;For routes requiring specific roles, the role-based middleware checks the user's role. If the user has the required role, the request is allowed to proceed; otherwise, access is denied.&lt;/font&gt;&lt;/li&gt;&lt;/ul&gt;&lt;/li&gt;&lt;/ol&gt;" style="rounded=0;whiteSpace=wrap;html=1;fontSize=16;fontColor=#000000;align=left;perimeterSpacing=5;" vertex="1" parent="1">
                    <mxGeometry x="1100" y="260" width="773" height="1350" as="geometry"/>
                </mxCell>
            </root>
        </mxGraphModel>
    </diagram>
</mxfile>